<?xml version="1.0" encoding="UTF-8" standalone="no"?>
<svg xmlns:svg="http://www.w3.org/2000/svg" xmlns="http://www.w3.org/2000/svg" version="1.1" width="48" height="48" id="q">
<defs id="d" />
<g transform="translate(-260.112,-459.385)" id="l1">
<g transform="scale(0.914035,1.09405)" id="O" style="fill:#aa0000;fill-opacity:1;stroke:none" />
<g transform="matrix(1.05566,0,0,1.05961,-14.0322,-30.5136)" id="g">
<path d="m 326.006,439.027 c 0,-8.098 -6.085,-16.331 -20.715,-16.331 -14.675,0 -20.715,8.277 -20.715,16.331 0,7.874 6.084,15.883 20.715,15.883 14.675,0 20.715,-8.054 20.715,-15.883 m -7.696,-0.761 c 0,8.232 -3.803,13.78 -13.019,13.78 -9.843,0 -13.02,-6.264 -13.02,-13.78 0,-2.953 0.492,-6.89 3.4,-9.664 2.774,-2.55 6.712,-3.132 9.62,-3.132 2.908,0 6.621,0.537 9.529,3.087 2.953,2.595 3.49,6.667 3.49,9.709" transform="scale(0.914035,1.09405)" id="p1" style="fill:#aa0000;fill-opacity:1;stroke:none" />
<g transform="matrix(1.21244,0,0,1.53301,-61.0173,-266.977)" id="S" style="fill:#000000;fill-opacity:1;stroke:none">
<path d="m 280.687,490.5 c -2.279,0 -4.157,2.182 -4.281,4.219 -0.06,1.039 0.538,1.503 0.599,1.728 l 3.19,0.474 c -2.183,-0.525 -2.445,-1.386 -2.476,-2.202 -0.05,-1.279 1.323,-2.157 2.843,-2.157 1.96,0 3.04,1.274 4,3.594 0.253,0.614 0.398,0.965 0.563,1.531 1.24,4.12 2.561,7.438 6.281,7.438 4.16,0 6.125,-5.375 6.125,-8.375 l 4.375,0 c -1.389,-1.038 -3.972,-2.804 -5.094,-3.688 -1.248,0.948 -3.805,2.895 -5.156,3.719 1.238,0 3.478,-0.05 4.5,-0.03 -0.28,3.12 -4.086,3.688 -4.406,3.688 -0.96,0 -2.46,-0.09 -4.5,-3.407 -0.378,-0.554 -0.755,-1.082 -1,-1.593 -1.36,-2.12 -2.843,-4.938 -5.563,-4.938 l 0,0 z" id="p2" style="fill:#44aa00" />
</g>
</g>
</g>
</svg>
